<svg
  style="position: absolute; width: 0; height: 0; overflow: hidden;"
  version="1.1"
  xmlns="http://www.w3.org/2000/svg"
  xmlns:xlink="http://www.w3.org/1999/xlink"
>
  <defs>
    <symbol id="rect" viewBox="0 0 10 10">
      <path fill="currentColor" d="M0 0h10v10H0z" />
    </symbol>
    <symbol id="github" fill="currentColor" viewBox="0 0 20 20">
      <path d="M10 0c5.523 0 10 4.59 10 10.253 0 4.529-2.862 8.371-6.833 9.728-.507.101-.687-.219-.687-.492 0-.338.012-1.442.012-2.814 0-.956-.32-1.58-.679-1.898 2.227-.254 4.567-1.121 4.567-5.059 0-1.12-.388-2.034-1.03-2.752.104-.259.447-1.302-.098-2.714 0 0-.838-.275-2.747 1.051A9.396 9.396 0 0 0 10 4.958a9.375 9.375 0 0 0-2.503.345C5.586 3.977 4.746 4.252 4.746 4.252c-.543 1.412-.2 2.455-.097 2.714-.639.718-1.03 1.632-1.03 2.752 0 3.928 2.335 4.808 4.556 5.067-.286.256-.545.708-.635 1.371-.57.262-2.018.715-2.91-.852 0 0-.529-.985-1.533-1.057 0 0-.975-.013-.068.623 0 0 .655.315 1.11 1.5 0 0 .587 1.83 3.369 1.21.005.857.014 1.665.014 1.909 0 .271-.184.588-.683.493C2.865 18.627 0 14.783 0 10.253 0 4.59 4.478 0 10 0" fill="currentColor"/>
    </symbol>
    <symbol id="head-hunter" viewBox="0 0 800 800">
      <path d="M369.5 1.1C231.4 12.2 110.8 91.5 45.8 214 2.3 296-10.9 395.3 9.6 487.5c29.3 131.4 124.3 240.3 250.7 287.4 74.8 27.8 157.7 32.6 235.7 13.5 127.5-31.2 232.9-125.2 278.9-248.6 26.5-71.2 32-148.7 16-224.2C763 183.4 667.1 72.6 539.6 25.1 486.7 5.4 424.7-3.4 369.5 1.1zM226 274v68l7.6-7.5c20.5-20.3 43.6-29.4 71.4-28.2 14.8.6 25.1 3.1 36.5 8.6 22.8 11 35 27.7 40.2 55.4 1.3 6.9 1.6 22.3 2 99.9l.4 91.8h-64.9l-.5-82.3c-.5-87.6-.7-92.5-5.4-103-8.4-18.8-35.1-25.3-58.3-14.1-13.2 6.3-21.9 18.3-26.2 36.3-2.1 8.3-2.2 11.3-2.5 85.8l-.4 77.3H160V206h66v68zm255 .2v68.1l7.3-6.9c13.8-13.4 26.6-21.3 42.2-26 8.3-2.6 10.3-2.8 26-2.8 19.6.1 27 1.6 41.1 8.4 23.5 11.3 36.1 30.2 40.5 60.5.8 5.4 1.3 37 1.6 97.2l.5 89.3H574v-79.5c0-82.7-.5-94.3-4.1-104.2-3.8-9.9-14.2-18.1-26.1-20.3-22.6-4.3-45.2 6.6-54.3 26.2-7.5 16.3-8.4 29-8.5 113V562h-65V206h65v68.2z" fill="currentColor"/>
    </symbol>
    <symbol id="linkedin" fill="currentColor" viewBox="0 0 24 24">
      <path d="M20.447 20.452h-3.554v-5.569c0-1.328-.027-3.037-1.852-3.037-1.853 0-2.136 1.445-2.136 2.939v5.667H9.351V9h3.414v1.561h.046c.477-.9 1.637-1.85 3.37-1.85 3.601 0 4.267 2.37 4.267 5.455v6.286zM5.337 7.433a2.062 2.062 0 0 1-2.063-2.065 2.064 2.064 0 1 1 2.063 2.065zm1.782 13.019H3.555V9h3.564v11.452zM22.225 0H1.771C.792 0 0 .774 0 1.729v20.542C0 23.227.792 24 1.771 24h20.451C23.2 24 24 23.227 24 22.271V1.729C24 .774 23.2 0 22.225 0z"/>
    </symbol>
    <symbol id="email" viewBox="0 -960 960 960" fill="currentColor">
      <path d="M160-160q-33 0-56.5-23.5T80-240v-480q0-33 23.5-56.5T160-800h640q33 0 56.5 23.5T880-720v480q0 33-23.5 56.5T800-160H160Zm320-280L160-640v400h640v-400L480-440Zm0-80 320-200H160l320 200ZM160-640v-80 480-400Z"/>
    </symbol>
    <symbol id="youtube" fill="currentColor" viewBox="0 0 24 24">
      <path d="M23.498 6.186a3.016 3.016 0 0 0-2.122-2.136C19.505 3.545 12 3.545 12 3.545s-7.505 0-9.377.505A3.017 3.017 0 0 0 .502 6.186C0 8.07 0 12 0 12s0 3.93.502 5.814a3.016 3.016 0 0 0 2.122 2.136c1.871.505 9.376.505 9.376.505s7.505 0 9.377-.505a3.015 3.015 0 0 0 2.122-2.136C24 15.93 24 12 24 12s0-3.93-.502-5.814zM9.545 15.568V8.432L15.818 12l-6.273 3.568z"/>
    </symbol>
    <symbol id="leetcode" fill="currentColor" viewBox="0 0 24 24">
      <path d="M13.483 0a1.374 1.374 0 0 0-.961.438L7.116 6.226l-3.854 4.126a5.266 5.266 0 0 0-1.209 2.104 5.35 5.35 0 0 0-.125.513 5.527 5.527 0 0 0 .062 2.362 5.83 5.83 0 0 0 .349 1.017 5.938 5.938 0 0 0 1.271 1.818l4.277 4.193.039.038c2.248 2.165 5.852 2.133 8.063-.074l2.396-2.392c.54-.54.54-1.414.003-1.955a1.378 1.378 0 0 0-1.951-.003l-2.396 2.392a3.021 3.021 0 0 1-4.205.038l-.02-.019-4.276-4.193c-.652-.64-.972-1.469-.948-2.263a2.68 2.68 0 0 1 .066-.523 2.545 2.545 0 0 1 .619-1.164L9.13 8.114c1.058-1.134 3.204-1.27 4.43-.278l3.501 2.831c.593.48 1.461.387 1.94-.207a1.384 1.384 0 0 0-.207-1.943l-3.5-2.831c-.8-.647-1.766-1.045-2.774-1.202l2.015-2.158A1.384 1.384 0 0 0 13.483 0zm-2.866 12.815a1.38 1.38 0 0 0-1.38 1.382 1.38 1.38 0 0 0 1.38 1.382H20.79a1.38 1.38 0 0 0 1.38-1.382 1.38 1.38 0 0 0-1.38-1.382z"/>
    </symbol>
    <symbol id="instagram" fill="currentColor" viewBox="0 0 24 24">
      <path d="M12 0C8.74 0 8.333.015 7.053.072 5.775.132 4.905.333 4.14.63c-.789.306-1.459.717-2.126 1.384S.936 3.35.63 4.14C.333 4.905.131 5.775.072 7.053.012 8.333 0 8.74 0 12s.015 3.667.072 4.947c.06 1.277.261 2.148.558 2.913a5.885 5.885 0 0 0 1.384 2.126A5.868 5.868 0 0 0 4.14 23.37c.766.296 1.636.499 2.913.558C8.333 23.988 8.74 24 12 24s3.667-.015 4.947-.072c1.277-.06 2.148-.262 2.913-.558a5.898 5.898 0 0 0 2.126-1.384 5.86 5.86 0 0 0 1.384-2.126c.296-.765.499-1.636.558-2.913.06-1.28.072-1.687.072-4.947s-.015-3.667-.072-4.947c-.06-1.277-.262-2.148-.558-2.913a5.89 5.89 0 0 0-1.384-2.126C21.314.936 20.644.523 19.86.227c-.766-.287-1.635-.489-2.913-.547C15.667-.385 15.26-.399 12-.399zm0 2.16c3.203 0 3.585.012 4.85.07 1.17.055 1.805.249 2.227.415.562.217.96.477 1.382.896.419.42.679.819.896 1.381.164.422.36 1.057.413 2.227.057 1.266.07 1.646.07 4.85s-.012 3.585-.07 4.85c-.055 1.17-.249 1.805-.415 2.227-.217.562-.477.96-.896 1.382-.42.419-.819.679-1.381.896-.422.164-1.057.36-2.227.413-1.266.057-1.646.07-4.85.07s-3.585-.012-4.85-.07c-1.17-.055-1.805-.249-2.227-.415a3.727 3.727 0 0 1-1.382-.896 3.707 3.707 0 0 1-.896-1.381c-.164-.422-.36-1.057-.413-2.227-.057-1.266-.07-1.646-.07-4.85s.012-3.585.07-4.85c.055-1.17.249-1.805.415-2.227.217-.562.477-.96.896-1.382.42-.419.819-.679 1.381-.896.422-.164 1.057-.36 2.227-.413 1.266-.057 1.646-.07 4.85-.07zm0 3.678a6.162 6.162 0 1 0 0 12.324 6.162 6.162 0 0 0 0-12.324zM12 16a4 4 0 1 1 0-8 4 4 0 0 1 0 8zm6.406-11.845a1.44 1.44 0 1 0 0 2.88 1.44 1.44 0 0 0 0-2.88z"/>
    </symbol>
    <symbol id="whatsapp" fill="currentColor" viewBox="0 0 24 24">
      <path d="M17.472 14.382c-.297-.149-1.758-.867-2.03-.967-.273-.099-.471-.148-.67.15-.197.297-.767.966-.94 1.164-.173.199-.347.223-.644.075-.297-.15-1.255-.463-2.39-1.475-.883-.788-1.48-1.761-1.653-2.059-.173-.297-.018-.458.13-.606.134-.133.297-.347.446-.52.149-.174.198-.298.298-.497.099-.198.05-.371-.025-.52-.075-.149-.669-1.612-.916-2.207-.242-.579-.487-.5-.669-.51-.173-.008-.371-.01-.57-.01s-.52.074-.792.372c-.272.297-1.04 1.016-1.04 2.479 0 1.462 1.065 2.875 1.213 3.074.149.198 2.096 3.2 5.077 4.487.709.306 1.262.489 1.694.625.712.227 1.36.195 1.871.118.571-.085 1.758-.719 2.006-1.413.248-.694.248-1.289.173-1.413-.074-.124-.272-.198-.57-.347m-5.421 7.403h-.004a9.87 9.87 0 0 1-5.031-1.378l-.361-.214-3.741.982.998-3.648-.235-.374a9.86 9.86 0 0 1-1.51-5.26c.001-5.45 4.436-9.884 9.888-9.884 2.64 0 5.122 1.03 6.988 2.898a9.825 9.825 0 0 1 2.893 6.994c-.003 5.45-4.437 9.884-9.885 9.884m8.413-18.297A11.815 11.815 0 0 0 12.05 0C5.495 0 .16 5.335.157 11.892c0 2.096.547 4.142 1.588 5.945L.057 24l6.305-1.654a11.882 11.882 0 0 0 5.683 1.448h.005c6.554 0 11.89-5.335 11.893-11.893a11.821 11.821 0 0 0-3.48-8.413Z"/>
    </symbol>
    <symbol id="telegram" fill="currentColor" viewBox="0 0 24 24">
      <path d="M11.944 0A12 12 0 0 0 0 12a12 12 0 0 0 12 12 12 12 0 0 0 12-12A12 12 0 0 0 12 0a12 12 0 0 0-.056 0zm4.962 7.224c.1-.002.321.023.465.14a.506.506 0 0 1 .171.325c.016.093.036.306.02.472-.18 1.898-.962 6.502-1.36 8.627-.17.91-.494 1.208-.822 1.23-.696.047-1.225-.46-1.9-.902-1.056-.693-1.653-1.124-2.678-1.8-1.185-.78-.417-1.21.258-1.91.177-.184 3.247-2.977 3.307-3.23.007-.032.014-.15-.056-.212s-.174-.04-.249-.024c-.106.024-1.793 1.14-5.061 3.345-.48.33-.913.49-1.302.48-.428-.008-1.252-.241-1.865-.44-.752-.245-1.349-.374-1.297-.789.027-.216.325-.437.893-.662 3.488-1.513 5.823-2.529 6.998-3.014 3.332-1.386 4.025-1.627 4.476-1.635z"/>
    </symbol>
    <symbol id="psychology" fill="currentColor" viewBox="0 -960 960 960">
      <path d="M240-80v-172q-57-52-88.5-121.5T120-520q0-150 105-255t255-105q125 0 221.5 73.5T827-615l52 205q5 19-7 34.5T840-360h-80v120q0 33-23.5 56.5T680-160h-80v80h-80v-160h160v-200h108l-38-155q-23-91-98-148t-172-57q-116 0-198 81t-82 197q0 60 24.5 114t69.5 96l26 24v208h-80Zm254-360Zm-54 80h80l6-50q8-3 14.5-7t11.5-9l46 20 40-68-40-30q2-8 2-16t-2-16l40-30-40-68-46 20q-5-5-11.5-9t-14.5-7l-6-50h-80l-6 50q-8 3-14.5 7t-11.5 9l-46-20-40 68 40 30q-2 8-2 16t2 16l-40 30 40 68 46-20q5 5 11.5 9t14.5 7l6 50Zm40-100q-25 0-42.5-17.5T420-520q0-25 17.5-42.5T480-580q25 0 42.5 17.5T540-520q0 25-17.5 42.5T480-460Z"/>
    </symbol>
  </defs>
</svg>
